<?xml version="1.0" encoding="UTF-8" standalone="no"?>
<!-- Created with Inkscape (http://www.inkscape.org/) -->

<svg
   xmlns:dc="http://purl.org/dc/elements/1.1/"
   xmlns:cc="http://creativecommons.org/ns#"
   xmlns:rdf="http://www.w3.org/1999/02/22-rdf-syntax-ns#"
   xmlns:svg="http://www.w3.org/2000/svg"
   xmlns="http://www.w3.org/2000/svg"
   xmlns:sodipodi="http://sodipodi.sourceforge.net/DTD/sodipodi-0.dtd"
   xmlns:inkscape="http://www.inkscape.org/namespaces/inkscape"
   width="256"
   height="256"
   viewBox="0 0 256 256"
   id="svg2"
   version="1.1"
   inkscape:version="0.91 r13725"
   sodipodi:docname="icon-dict.svg"
   inkscape:export-filename="/home/yuya/devel/light_dict/light_dict/data/icon-dict-48.png"
   inkscape:export-xdpi="16.879999"
   inkscape:export-ydpi="16.879999">
  <defs
     id="defs4" />
  <sodipodi:namedview
     id="base"
     pagecolor="#ffffff"
     bordercolor="#666666"
     borderopacity="1.0"
     inkscape:pageopacity="0.0"
     inkscape:pageshadow="2"
     inkscape:zoom="1.4"
     inkscape:cx="144.58922"
     inkscape:cy="96.949075"
     inkscape:document-units="px"
     inkscape:current-layer="layer1"
     showgrid="false"
     inkscape:window-width="1066"
     inkscape:window-height="939"
     inkscape:window-x="791"
     inkscape:window-y="48"
     inkscape:window-maximized="0"
     units="px" />
  <metadata
     id="metadata7">
    <rdf:RDF>
      <cc:Work
         rdf:about="">
        <dc:format>image/svg+xml</dc:format>
        <dc:type
           rdf:resource="http://purl.org/dc/dcmitype/StillImage" />
        <dc:title />
      </cc:Work>
    </rdf:RDF>
  </metadata>
  <g
     inkscape:label="レイヤー 1"
     inkscape:groupmode="layer"
     id="layer1"
     transform="translate(0,-796.36216)">
    <path
       style="fill:none;stroke:#afafaf;stroke-width:4.80836439;stroke-linecap:round;stroke-linejoin:round;stroke-miterlimit:4;stroke-dasharray:none;stroke-opacity:1"
       d="m 77.810126,807.43611 162.015934,0 0,207.98719 -24.72247,0"
       id="rect4155-0"
       inkscape:connector-curvature="0"
       sodipodi:nodetypes="cccc" />
    <path
       style="fill:none;fill-rule:evenodd;stroke:#afafaf;stroke-width:4.80836439;stroke-linecap:butt;stroke-linejoin:miter;stroke-miterlimit:4;stroke-dasharray:none;stroke-opacity:1"
       d="m 77.968761,807.43613 c -76.8350855,0 -66.987026,28.47203 -35.316334,28.47203"
       id="path4172"
       inkscape:connector-curvature="0"
       sodipodi:nodetypes="cc" />
    <path
       style="fill:none;fill-rule:evenodd;stroke:#afafaf;stroke-width:4.80836439;stroke-linecap:butt;stroke-linejoin:miter;stroke-miterlimit:4;stroke-dasharray:none;stroke-opacity:1"
       d="m 19.075915,1031.6175 c -0.687825,6.4089 9.1929,12.2778 23.571989,12.2778"
       id="path4172-6"
       inkscape:connector-curvature="0"
       sodipodi:nodetypes="cc" />
    <path
       style="fill:none;fill-rule:evenodd;stroke:#afafaf;stroke-width:4.80836439;stroke-linecap:butt;stroke-linejoin:miter;stroke-miterlimit:4;stroke-dasharray:none;stroke-opacity:1"
       d="m 19.074821,823.56176 0,208.46694"
       id="path4189"
       inkscape:connector-curvature="0" />
    <path
       style="fill:#d35f5f;fill-rule:evenodd;stroke:#000000;stroke-width:1.2020911px;stroke-linecap:butt;stroke-linejoin:round;stroke-opacity:1"
       d="m 228.70176,1005.4892 c -3.86221,3.3984 -7.8075,6.7467 -11.7924,10.0682 -4.23566,3.5304 -8.51609,7.0308 -12.78908,10.5289"
       id="path4191-8"
       inkscape:connector-curvature="0"
       sodipodi:nodetypes="csc" />
    <path
       style="fill:none;fill-rule:evenodd;stroke:#000000;stroke-width:1.2020911px;stroke-linecap:butt;stroke-linejoin:miter;stroke-opacity:1"
       d="m 228.78158,816.15946 0,189.49044"
       id="path4208"
       inkscape:connector-curvature="0"
       sodipodi:nodetypes="cc" />
    <path
       style="fill:none;stroke:#afafaf;stroke-width:4.80836439;stroke-linecap:round;stroke-linejoin:round;stroke-miterlimit:4;stroke-dasharray:none;stroke-opacity:1"
       d="m 42.440455,835.90816 162.015925,0 0,207.98714 -162.015925,0"
       id="rect4155"
       inkscape:connector-curvature="0"
       sodipodi:nodetypes="cccc" />
    <path
       style="fill:#b94848;fill-opacity:1;stroke:none;stroke-width:1.42857146;stroke-linecap:butt;stroke-linejoin:miter;stroke-miterlimit:4;stroke-dasharray:none;stroke-opacity:1"
       d="m 20.809918,832.63517 c -0.393339,15.49459 -0.05598,31.07365 -0.168469,46.60071 0.09887,49.75847 -0.220441,99.51925 0.2273,149.27622 0.184517,3.1382 -0.516091,7.0589 2.979858,9.0497 5.847209,4.1588 13.652903,5.1478 20.937429,4.809 52.314544,0.3885 104.631794,0.2332 156.947614,0.3143 2.56174,-1.0263 0.7237,-4.3823 1.27911,-6.3814 0,-65.96353 0,-131.9271 0,-197.89067 -1.1601,-2.26593 -4.95216,-0.6396 -7.2112,-1.13111 -52.16506,-0.10505 -104.357976,0.25441 -156.504928,-0.31704 -6.09388,-0.0837 -12.002103,-2.12159 -17.159694,-4.79307 -0.579492,-0.30479 -0.895524,0.25499 -1.32702,0.46336 z"
       id="path4214"
       inkscape:connector-curvature="0" />
    <path
       style="fill:#b3b3b3;stroke:none;stroke-width:1.42857146;stroke-linecap:butt;stroke-linejoin:miter;stroke-miterlimit:4;stroke-dasharray:none;stroke-opacity:1"
       d="m 139.27247,815.90106 c -25.60946,0.17215 -51.24902,-0.34715 -76.834551,0.81561 -10.458218,0.86606 -21.588569,1.87866 -30.556908,7.14087 -2.354671,1.73736 -5.278987,4.3611 -4.647862,7.2813 2.658778,2.28567 6.851565,2.45124 10.31586,3.14489 37.144643,0.62635 74.307201,0.29611 111.459041,0.4213 18.88647,0.0896 37.79617,-0.0887 56.66012,0.3596 2.59516,0.0633 4.16305,-2.54485 6.15922,-3.70939 5.47976,-4.56679 11.18131,-9.04637 16.30105,-13.87051 0.39999,-2.67965 -4.23393,-1.20088 -6.08487,-1.57709 -27.59036,-0.002 -55.18073,-0.008 -82.7711,-0.006 z m 66.27446,19.10046 c -0.23776,-0.0465 -0.64499,-0.47764 0,0 z"
       id="path4216"
       inkscape:connector-curvature="0" />
    <path
       style="fill:#b3b3b3;stroke:none;stroke-width:1.42857146;stroke-linecap:butt;stroke-linejoin:miter;stroke-miterlimit:4;stroke-dasharray:none;stroke-opacity:1"
       d="m 226.86054,818.52141 c -6.40477,5.38227 -12.87792,11.28271 -19.63605,16.01947 -1.51048,0.75723 -0.75302,3.48256 -1.00183,5.09389 -0.52423,60.85822 -0.19393,121.71998 -0.28976,182.57963 0.96727,2.4988 3.66692,-0.1944 4.90633,-1.1669 6.0037,-5.0171 12.2467,-9.9363 17.911,-15.1906 0.512,-8.68552 0.0765,-17.54363 0.22569,-26.2953 0.0168,-53.40896 0.0338,-106.81796 0.0506,-160.22694 -0.11075,-0.96347 -1.3145,-1.42661 -2.16603,-0.81325 z"
       id="path4218"
       inkscape:connector-curvature="0" />
    <path
       style="fill:#b94848;fill-opacity:1;stroke:none;stroke-width:2.02030516;stroke-linecap:butt;stroke-linejoin:miter;stroke-miterlimit:4;stroke-dasharray:none;stroke-opacity:1"
       d="m 148.88497,808.80329 c -31.09165,0.30286 -62.220432,-0.35361 -93.285035,0.98835 -11.072231,1.11538 -23.02641,2.86 -31.845062,9.35134 -3.000064,2.10236 -4.423516,6.28968 -1.273197,8.86831 0.838655,1.78779 4.562766,3.61145 5.18103,0.70614 3.712407,-6.52074 12.566209,-8.40396 19.94634,-10.09651 13.842305,-2.87083 28.351188,-1.53269 42.568762,-2.08479 45.966282,-0.26673 92.019842,-0.74287 137.935342,-0.0492 1.0863,25.14038 0.42969,50.397 0.65502,75.58712 0.009,37.89059 0.002,75.78121 0.003,113.67181 -2.44288,2.5493 -5.88818,4.5345 -7.70096,7.4383 2.33461,2.3099 7.12324,0.4727 10.45156,1.0474 3.99652,0.6823 8.17789,-0.1119 6.58282,-4.5579 0,-66.65343 0,-133.30678 0,-199.96012 -2.3291,-2.50062 -7.51182,-0.46288 -10.96333,-1.10681 -26.08585,0.0654 -52.1717,0.13104 -78.25755,0.19656 z"
       id="path4220"
       inkscape:connector-curvature="0" />
    <path
       style="fill:#ececec;stroke:none;stroke-width:2.02030516;stroke-linecap:butt;stroke-linejoin:miter;stroke-miterlimit:4;stroke-dasharray:none;stroke-opacity:1"
       d="m 159.22099,816.65251 c -34.64798,0.24811 -69.332407,-0.30535 -103.95091,1.14674 -8.48165,0.99693 -17.593282,2.64391 -24.323113,7.61559 -2.181514,1.52485 -5.382117,5.20422 -1.851808,7.0322 7.875417,2.49624 16.574063,1.53489 24.80443,1.97054 50.895301,0.4253 101.793731,0.34161 152.690631,0.45235 7.32832,-4.64642 13.3907,-10.89685 20.06611,-16.31214 0.58767,-3.72298 -6.56333,-1.2111 -9.28173,-1.93746 -19.38454,0.0108 -38.76909,0.0215 -58.15361,0.0322 z"
       id="path4241"
       inkscape:connector-curvature="0" />
    <path
       style="fill:#ececec;stroke:none;stroke-width:2.02030516;stroke-linecap:butt;stroke-linejoin:miter;stroke-miterlimit:4;stroke-dasharray:none;stroke-opacity:1"
       d="m 225.51045,819.74694 c -6.24948,5.48675 -12.66511,11.04019 -19.32192,16.01608 -0.52459,22.88359 -0.0748,45.97139 -0.22482,68.93352 0,39.20246 0,78.4049 0,117.60726 2.11536,2.8492 5.15692,-2.0962 7.38077,-3.226 5.14749,-4.5129 10.76161,-8.8474 15.18382,-13.8491 -0.14229,-59.61888 0.34222,-119.24495 -0.46571,-178.85914 -0.78798,-1.80996 1.22379,-7.6918 -2.55214,-6.62262 z"
       id="path4243"
       inkscape:connector-curvature="0" />
    <g
       style="font-style:normal;font-variant:normal;font-weight:normal;font-stretch:normal;font-size:40px;line-height:125%;font-family:Bolina;-inkscape-font-specification:Bolina;letter-spacing:0px;word-spacing:0px;fill:#e1b2b2;fill-opacity:1;stroke:none;stroke-width:1px;stroke-linecap:butt;stroke-linejoin:miter;stroke-opacity:1"
       id="text4148"
       transform="matrix(1.1610977,0,0,1.1610977,-19.245701,-129.3616)">
      <path
         d="m 178.72286,861.22224 c 0,-7.2 -3.6,-11.16 -8.1,-11.16 -12.6,0 -43.02,31.5 -59.22,69.3 -18.000003,-0.18 -28.260003,-9.18 -28.260003,-29.34 0,-20.52 12.96,-32.22 26.280003,-32.22 8.64,0 16.92,5.58 21.78,9.36 0.72,0.72 1.26,0 0.36,-0.9 -3.78,-5.22 -13.5,-10.44 -22.86,-10.44 -14.940003,0 -31.500003,10.62 -31.500003,33.84 0,23.22 16.56,31.14 33.480003,31.68 -6.48,15.66 -13.860003,36.72 -25.200003,49.32 -9,-4.32 -18.18,-8.46 -25.92,-8.46 -4.68,0 -10.26,2.34 -10.26,10.26 0,7.02 7.02,10.8 15.48,10.8 8.64,-0.18 16.38,-3.42 23.58,-8.64 8.82,4.5 18.360003,8.64 30.060003,8.64 21.42,0 37.8,-16.74 37.8,-40.14 0,-7.56 -4.32,-13.86 -9.18,-13.86 -8.82,0 -16.56,9.9 -19.44,16.56 -0.72,1.44 0.18,1.8 0.9,0.72 3.06,-5.4 10.08,-15.3 18.9,-15.3 2.88,0 6.48,3.24 6.48,7.92 0,15.3 -21.42,42.48 -39.6,42.48 -6.12,0 -14.760003,-4.14 -23.760003,-8.46 15.300003,-12.42 27.000003,-34.02 36.000003,-54.18 26.1,-8.28 52.2,-37.44 52.2,-57.78 z m -1.44,0 c 0,18.72 -24.48,46.26 -49.68,55.26 13.32,-30.42 32.76,-64.08 43.38,-64.08 3.42,0 6.3,2.34 6.3,8.82 z m -93.420003,111.06 c -5.4,5.4 -11.88,8.82 -19.26,8.82 -6.48,0 -14.04,-3.42 -14.04,-9.36 0,-5.22 5.04,-8.28 9,-8.28 8.1,0.18 15.84,4.32 24.3,8.82 z"
         style="font-size:180px;fill:#e1b2b2;fill-opacity:1"
         id="path4153"
         inkscape:connector-curvature="0" />
    </g>
  </g>
</svg>
