<?xml version="1.0" encoding="UTF-8" standalone="no"?>
<!-- Created with Inkscape (http://www.inkscape.org/) -->

<svg
   xmlns:dc="http://purl.org/dc/elements/1.1/"
   xmlns:cc="http://creativecommons.org/ns#"
   xmlns:rdf="http://www.w3.org/1999/02/22-rdf-syntax-ns#"
   xmlns:svg="http://www.w3.org/2000/svg"
   xmlns="http://www.w3.org/2000/svg"
   xmlns:sodipodi="http://sodipodi.sourceforge.net/DTD/sodipodi-0.dtd"
   xmlns:inkscape="http://www.inkscape.org/namespaces/inkscape"
   width="256"
   height="256"
   viewBox="0 0 256 256"
   id="svg2"
   version="1.1"
   inkscape:version="0.91 r13725"
   sodipodi:docname="icon-monodict.svg"
   inkscape:export-filename="/home/yuya/devel/light_dict/light_dict/data/icon-monodict-48.png"
   inkscape:export-xdpi="16.875"
   inkscape:export-ydpi="16.875">
  <defs
     id="defs4" />
  <sodipodi:namedview
     id="base"
     pagecolor="#ffffff"
     bordercolor="#666666"
     borderopacity="1.0"
     inkscape:pageopacity="0.0"
     inkscape:pageshadow="2"
     inkscape:zoom="1.979899"
     inkscape:cx="101.34391"
     inkscape:cy="136.94837"
     inkscape:document-units="px"
     inkscape:current-layer="layer1"
     showgrid="false"
     inkscape:window-width="1469"
     inkscape:window-height="949"
     inkscape:window-x="30"
     inkscape:window-y="33"
     inkscape:window-maximized="0"
     units="px" />
  <metadata
     id="metadata7">
    <rdf:RDF>
      <cc:Work
         rdf:about="">
        <dc:format>image/svg+xml</dc:format>
        <dc:type
           rdf:resource="http://purl.org/dc/dcmitype/StillImage" />
        <dc:title />
      </cc:Work>
    </rdf:RDF>
  </metadata>
  <g
     inkscape:label="レイヤー 1"
     inkscape:groupmode="layer"
     id="layer1"
     transform="translate(0,-796.36216)">
    <path
       style="fill:none;stroke:#eeeeee;stroke-width:4.8004446;stroke-linecap:round;stroke-linejoin:round;stroke-miterlimit:4;stroke-dasharray:none;stroke-opacity:1"
       d="m 77.895155,807.63085 161.749075,0 0,207.64465 -24.68175,0"
       id="rect4155-0"
       inkscape:connector-curvature="0"
       sodipodi:nodetypes="cccc" />
    <path
       style="fill:none;fill-rule:evenodd;stroke:#eeeeee;stroke-width:4.8004446;stroke-linecap:butt;stroke-linejoin:miter;stroke-miterlimit:4;stroke-dasharray:none;stroke-opacity:1"
       d="m 78.053529,807.63087 c -76.7085309,0 -66.876692,28.42512 -35.258165,28.42512"
       id="path4172"
       inkscape:connector-curvature="0"
       sodipodi:nodetypes="cc" />
    <path
       style="fill:none;fill-rule:evenodd;stroke:#eeeeee;stroke-width:4.8004446;stroke-linecap:butt;stroke-linejoin:miter;stroke-miterlimit:4;stroke-dasharray:none;stroke-opacity:1"
       d="m 19.257685,1031.4431 c -0.686692,6.3982 9.177759,12.2574 23.533164,12.2574"
       id="path4172-6"
       inkscape:connector-curvature="0"
       sodipodi:nodetypes="cc" />
    <path
       style="fill:none;fill-rule:evenodd;stroke:#eeeeee;stroke-width:4.8004446;stroke-linecap:butt;stroke-linejoin:miter;stroke-miterlimit:4;stroke-dasharray:none;stroke-opacity:1"
       d="m 19.256593,823.72993 0,208.12357"
       id="path4189"
       inkscape:connector-curvature="0" />
    <path
       style="fill:#d35f5f;fill-rule:evenodd;stroke:#000000;stroke-width:1.20011115px;stroke-linecap:butt;stroke-linejoin:round;stroke-opacity:1"
       d="m 228.53825,1005.3577 c -3.85584,3.3928 -7.79464,6.7357 -11.77296,10.0516 -4.22869,3.5246 -8.50207,7.0192 -12.76803,10.5116"
       id="path4191-8"
       inkscape:connector-curvature="0"
       sodipodi:nodetypes="csc" />
    <path
       style="fill:none;fill-rule:evenodd;stroke:#000000;stroke-width:1.20011115px;stroke-linecap:butt;stroke-linejoin:miter;stroke-opacity:1"
       d="m 228.61795,816.33983 0,189.17837"
       id="path4208"
       inkscape:connector-curvature="0"
       sodipodi:nodetypes="cc" />
    <path
       style="fill:none;stroke:#eeeeee;stroke-width:4.8004446;stroke-linecap:round;stroke-linejoin:round;stroke-miterlimit:4;stroke-dasharray:none;stroke-opacity:1"
       d="m 42.583741,836.05599 161.749069,0 0,207.64451 -161.749069,0"
       id="rect4155"
       inkscape:connector-curvature="0"
       sodipodi:nodetypes="cccc" />
    <path
       style="fill:#7f7f7f;fill-opacity:1;stroke:none;stroke-width:1.42857146;stroke-linecap:butt;stroke-linejoin:miter;stroke-miterlimit:4;stroke-dasharray:none;stroke-opacity:1"
       d="m 20.988832,832.7884 c -0.392692,15.46907 -0.05589,31.02247 -0.168191,46.52395 0.09871,49.67652 -0.220079,99.35534 0.226925,149.03035 0.184213,3.133 -0.515241,7.0473 2.97495,9.0348 5.837579,4.152 13.630415,5.1393 20.902943,4.8011 52.228378,0.3878 104.459461,0.2328 156.689111,0.3137 2.55752,-1.0246 0.72251,-4.375 1.277,-6.3709 0,-65.85482 0,-131.70973 0,-197.56466 -1.15819,-2.26219 -4.94401,-0.63854 -7.19933,-1.12924 -52.07913,-0.10488 -104.186083,0.25399 -156.247143,-0.31652 -6.083843,-0.0835 -11.982335,-2.11809 -17.131432,-4.78518 -0.578537,-0.30429 -0.894048,0.25458 -1.324833,0.4626 z"
       id="path4214"
       inkscape:connector-curvature="0" />
    <path
       style="fill:#b3b3b3;stroke:none;stroke-width:1.42857146;stroke-linecap:butt;stroke-linejoin:miter;stroke-miterlimit:4;stroke-dasharray:none;stroke-opacity:1"
       d="m 139.25627,816.08185 c -25.56728,0.17187 -51.164613,-0.34658 -76.708002,0.81427 -10.440993,0.86464 -21.553012,1.87556 -30.506579,7.12911 -2.350792,1.7345 -5.270292,4.35392 -4.640206,7.26931 2.6544,2.2819 6.84028,2.4472 10.298868,3.13971 37.083464,0.62532 74.184799,0.29562 111.275449,0.4206 18.85537,0.0894 37.73393,-0.0885 56.5668,0.35901 2.59088,0.0632 4.15619,-2.54066 6.14908,-3.70328 5.47074,-4.55927 11.16289,-9.03147 16.2742,-13.84767 0.39933,-2.67523 -4.22696,-1.19889 -6.07484,-1.57449 -27.54493,-0.002 -55.08985,-0.008 -82.63477,-0.006 z m 66.16529,19.069 c -0.23736,-0.0465 -0.64393,-0.47685 0,0 z"
       id="path4216"
       inkscape:connector-curvature="0" />
    <path
       style="fill:#b3b3b3;stroke:none;stroke-width:1.42857146;stroke-linecap:butt;stroke-linejoin:miter;stroke-miterlimit:4;stroke-dasharray:none;stroke-opacity:1"
       d="m 226.70006,818.69789 c -6.39421,5.3734 -12.8567,11.26413 -19.6037,15.99308 -1.50799,0.75598 -0.75177,3.47682 -1.00018,5.0855 -0.52337,60.75798 -0.19361,121.5195 -0.28928,182.27893 0.96567,2.4946 3.66088,-0.1941 4.89825,-1.165 5.99381,-5.0089 12.22653,-9.9199 17.88149,-15.1655 0.51116,-8.6713 0.0764,-17.51481 0.22533,-26.25207 0.0167,-53.32099 0.0337,-106.64202 0.0505,-159.96303 -0.11057,-0.96189 -1.31234,-1.42427 -2.16248,-0.81191 z"
       id="path4218"
       inkscape:connector-curvature="0" />
    <path
       style="fill:#7f7f7f;fill-opacity:1;stroke:none;stroke-width:2.02030516;stroke-linecap:butt;stroke-linejoin:miter;stroke-miterlimit:4;stroke-dasharray:none;stroke-opacity:1"
       d="m 148.85293,808.99578 c -31.04043,0.30236 -62.117947,-0.35304 -93.131383,0.98672 -11.053995,1.11354 -22.988483,2.85528 -31.792611,9.33593 -2.995122,2.09889 -4.41623,6.27933 -1.2711,8.85371 0.837274,1.78484 4.555251,3.6055 5.172496,0.70497 3.706293,-6.51 12.545512,-8.39011 19.913487,-10.07988 13.819506,-2.86609 28.304491,-1.53016 42.498648,-2.08135 45.890573,-0.2663 91.868283,-0.74165 137.708143,-0.0491 1.08451,25.09896 0.42898,50.31399 0.65395,75.46261 0.009,37.82819 0.002,75.65639 0.003,113.48457 -2.43885,2.5451 -5.87848,4.527 -7.68828,7.426 2.33077,2.3061 7.11152,0.4719 10.43435,1.0458 3.98993,0.6811 8.16443,-0.1118 6.57198,-4.5505 0,-66.54359 0,-133.08716 0,-199.63072 -2.32527,-2.4965 -7.49945,-0.46211 -10.94527,-1.10498 -26.04289,0.0653 -52.08577,0.13082 -78.12866,0.19623 z"
       id="path4220"
       inkscape:connector-curvature="0" />
    <path
       style="fill:#ffffff;fill-opacity:1;stroke:none;stroke-width:2.02030516;stroke-linecap:butt;stroke-linejoin:miter;stroke-miterlimit:4;stroke-dasharray:none;stroke-opacity:1"
       d="m 159.17192,816.83207 c -34.5909,0.2477 -69.218202,-0.30485 -103.779685,1.14484 -8.46768,0.9953 -17.564304,2.63957 -24.28305,7.60305 -2.177921,1.52234 -5.373253,5.19565 -1.848759,7.02063 7.862446,2.49212 16.546764,1.53236 24.763575,1.96729 50.811479,0.42459 101.626059,0.34104 152.439139,0.4516 7.31624,-4.63877 13.36864,-10.8789 20.03306,-16.28527 0.5867,-3.71685 -6.55253,-1.20911 -9.26645,-1.93427 -19.35261,0.0108 -38.70523,0.0214 -58.05783,0.0322 z"
       id="path4241"
       inkscape:connector-curvature="0" />
    <path
       style="fill:#ffffff;fill-opacity:1;stroke:none;stroke-width:2.02030516;stroke-linecap:butt;stroke-linejoin:miter;stroke-miterlimit:4;stroke-dasharray:none;stroke-opacity:1"
       d="m 225.3522,819.92139 c -6.23918,5.47772 -12.64424,11.02201 -19.29009,15.98971 -0.52373,22.8459 -0.0747,45.89567 -0.22446,68.81998 0,39.13789 0,78.27576 0,117.41352 2.11188,2.8446 5.14844,-2.0927 7.36862,-3.2206 5.13901,-4.5055 10.74389,-8.8329 15.15881,-13.8263 -0.14205,-59.52072 0.34166,-119.04858 -0.46494,-178.56459 -0.78669,-1.80699 1.22177,-7.67914 -2.54794,-6.61172 z"
       id="path4243"
       inkscape:connector-curvature="0" />
  </g>
</svg>
